<svg viewBox="0 0 2560 1440" width="2560" height="1440" xmlns="http://www.w3.org/2000/svg"><rect width="2560" height="1440" fill="#FFFFFF"></rect><circle cx="714.2357458499833" cy="1121.5066857464997" r="28.052326407840308" fill="#E3E3E3" stroke="#FFFFFF" stroke-width="0"></circle><circle cx="368.74613833461274" cy="880.5103473126151" r="41.49964523460745" fill="#E3E3E3" stroke="#FFFFFF" stroke-width="0"></circle><circle cx="441.6088986293283" cy="1321.0596109054482" r="81.40206755854375" fill="#E3E3E3" stroke="#FFFFFF" stroke-width="0"></circle><circle cx="352.322171604885" cy="1001.3106187727653" r="46.28017761539155" fill="#E3E3E3" stroke="#FFFFFF" stroke-width="0"></circle><circle cx="2449.531887180544" cy="814.2018276203523" r="57.307732253410684" fill="#E3E3E3" stroke="#FFFFFF" stroke-width="0"></circle><circle cx="909.714210933822" cy="951.6434631429818" r="82.23012720378118" fill="#E3E3E3" stroke="#FFFFFF" stroke-width="0"></circle><circle cx="2043.8193479573586" cy="155.46095563778485" r="25.760077144864784" fill="#E3E3E3" stroke="#FFFFFF" stroke-width="0"></circle><circle cx="2206.3738383035497" cy="529.321966653182" r="71.25755393632645" fill="#E3E3E3" stroke="#FFFFFF" stroke-width="0"></circle><circle cx="1179.5886496548956" cy="852.1322489427454" r="82.71668570366974" fill="#E3E3E3" stroke="#FFFFFF" stroke-width="0"></circle><circle cx="795.2421439853971" cy="173.23890961355295" r="16.119281244965848" fill="#E3E3E3" stroke="#FFFFFF" stroke-width="0"></circle><circle cx="708.9190025229319" cy="1322.6912976995807" r="18.237129592588744" fill="#E3E3E3" stroke="#FFFFFF" stroke-width="0"></circle><circle cx="1773.116464334938" cy="503.27129631443455" r="44.8450020458553" fill="#E3E3E3" stroke="#FFFFFF" stroke-width="0"></circle><circle cx="2470.5114261290023" cy="904.9050652294206" r="22.850060669868483" fill="#E3E3E3" stroke="#FFFFFF" stroke-width="0"></circle><circle cx="1197.9614969354932" cy="690.3078774788765" r="60.97133150699162" fill="#E3E3E3" stroke="#FFFFFF" stroke-width="0"></circle><circle cx="1366.2209678830077" cy="296.9210729807081" r="24.67189951097525" fill="#E3E3E3" stroke="#FFFFFF" stroke-width="0"></circle><circle cx="1628.233971805852" cy="751.8578244808582" r="17.77950004780623" fill="#E3E3E3" stroke="#FFFFFF" stroke-width="0"></circle><circle cx="1915.0881264922912" cy="292.51034936206906" r="13.701033072426116" fill="#E3E3E3" stroke="#FFFFFF" stroke-width="0"></circle><circle cx="1618.3005297430077" cy="1139.4275788685707" r="16.776130802579992" fill="#E3E3E3" stroke="#FFFFFF" stroke-width="0"></circle><circle cx="526.2172841182945" cy="811.0488246283516" r="77.88355574112515" fill="#E3E3E3" stroke="#FFFFFF" stroke-width="0"></circle><circle cx="1409.0272672231986" cy="478.57859513757666" r="13.153219558478401" fill="#E3E3E3" stroke="#FFFFFF" stroke-width="0"></circle><circle cx="1266.2235537320705" cy="460.89849429914307" r="87.54517961637673" fill="#E3E3E3" stroke="#FFFFFF" stroke-width="0"></circle><circle cx="1372.0704015684273" cy="1170.0998805794254" r="32.252666412233154" fill="#E3E3E3" stroke="#FFFFFF" stroke-width="0"></circle><circle cx="1416.1088297891874" cy="1032.6322789434785" r="44.52610491916163" fill="#E3E3E3" stroke="#FFFFFF" stroke-width="0"></circle><circle cx="2329.45761296094" cy="417.6867357863981" r="71.42140121750961" fill="#E3E3E3" stroke="#FFFFFF" stroke-width="0"></circle><circle cx="452.63244068644485" cy="556.0025882384481" r="73.45945798336615" fill="#E3E3E3" stroke="#FFFFFF" stroke-width="0"></circle><circle cx="197.6166355229106" cy="569.3571195652322" r="48.16555991676871" fill="#E3E3E3" stroke="#FFFFFF" stroke-width="0"></circle><circle cx="1565.0331096692191" cy="1208.5492763416821" r="49.26263836548908" fill="#E3E3E3" stroke="#FFFFFF" stroke-width="0"></circle><circle cx="1261.7179149106205" cy="167.9454585995881" r="76.86093961223344" fill="#E3E3E3" stroke="#FFFFFF" stroke-width="0"></circle><circle cx="1249.9754885354193" cy="1240.9327316848671" r="63.27593173926341" fill="#E3E3E3" stroke="#FFFFFF" stroke-width="0"></circle><circle cx="711.5741784286552" cy="618.0833290716258" r="55.098848694860116" fill="#E3E3E3" stroke="#FFFFFF" stroke-width="0"></circle><circle cx="1419.248814657883" cy="84.09068115399361" r="30.061593188715214" fill="#E3E3E3" stroke="#FFFFFF" stroke-width="0"></circle><circle cx="974.4758917692409" cy="504.3017846950718" r="10.951415253818544" fill="#E3E3E3" stroke="#FFFFFF" stroke-width="0"></circle><circle cx="1288.3950755909975" cy="269.997977206727" r="14.490429026652677" fill="#E3E3E3" stroke="#FFFFFF" stroke-width="0"></circle><circle cx="1452.2830972688307" cy="960.6033808172901" r="17.370375709007057" fill="#E3E3E3" stroke="#FFFFFF" stroke-width="0"></circle><circle cx="688.302085150096" cy="1383.298413178733" r="10.054905884813598" fill="#E3E3E3" stroke="#FFFFFF" stroke-width="0"></circle><circle cx="146.06841761702228" cy="893.5533872149961" r="26.98474114639301" fill="#E3E3E3" stroke="#FFFFFF" stroke-width="0"></circle><circle cx="2096.7642591645035" cy="835.9254888468092" r="30.95358418653209" fill="#E3E3E3" stroke="#FFFFFF" stroke-width="0"></circle><circle cx="1645.5621696985927" cy="351.3276578459157" r="46.94349498964821" fill="#E3E3E3" stroke="#FFFFFF" stroke-width="0"></circle><circle cx="1648.0172874146233" cy="171.17197252421178" r="14.788696032346147" fill="#E3E3E3" stroke="#FFFFFF" stroke-width="0"></circle></svg>